<?xml version="1.0" encoding="UTF-8" standalone="no"?><!-- Generator: Gravit.io --><svg xmlns="http://www.w3.org/2000/svg" xmlns:xlink="http://www.w3.org/1999/xlink" style="isolation:isolate" viewBox="0 0 32 32" width="32pt" height="32pt"><g><linearGradient id="_lgradient_1" x1="0.2065217391304348" y1="0.391304347826087" x2="0.867823499612976" y2="0.9409539660612647" gradientTransform="matrix(23,0,0,23,4.5,4.5)" gradientUnits="userSpaceOnUse"><stop offset="0%" stop-opacity="1" style="stop-color:rgb(78,84,200)"/><stop offset="83.88839793817618%" stop-opacity="1" style="stop-color:rgb(0,114,255)"/></linearGradient><path d=" M 17.5 24.368 C 20.992 23.746 23.746 20.992 24.368 17.5 L 23 17.5 C 22.172 17.5 21.5 16.828 21.5 16 C 21.5 15.172 22.172 14.5 23 14.5 L 26 14.5 C 26.828 14.5 27.5 15.172 27.5 16 C 27.5 22.351 22.351 27.5 16 27.5 C 9.649 27.5 4.5 22.351 4.5 16 C 4.5 15.172 5.172 14.5 6 14.5 L 9 14.5 C 9.828 14.5 10.5 15.172 10.5 16 C 10.5 16.828 9.828 17.5 9 17.5 L 7.632 17.5 C 8.254 20.992 11.008 23.746 14.5 24.368 L 14.5 13.244 C 12.752 12.626 11.5 10.959 11.5 9 C 11.5 6.515 13.515 4.5 16 4.5 C 18.485 4.5 20.5 6.515 20.5 9 C 20.5 10.959 19.248 12.626 17.5 13.244 L 17.5 24.368 Z  M 16 10.5 C 16.828 10.5 17.5 9.828 17.5 9 C 17.5 8.172 16.828 7.5 16 7.5 C 15.172 7.5 14.5 8.172 14.5 9 C 14.5 9.828 15.172 10.5 16 10.5 Z " fill="url(#_lgradient_1)"/></g></svg>