<?xml version="1.0" encoding="UTF-8" standalone="no"?><!-- Generator: Gravit.io --><svg xmlns="http://www.w3.org/2000/svg" xmlns:xlink="http://www.w3.org/1999/xlink" style="isolation:isolate" viewBox="0 0 32 32" width="32pt" height="32pt"><linearGradient id="_lgradient_3" x1="0" y1="0.5" x2="1" y2="0.5" gradientTransform="matrix(25,0,0,21,3.5,5.5)" gradientUnits="userSpaceOnUse"><stop offset="2.1739130434782608%" stop-opacity="1" style="stop-color:rgb(89,193,115)"/><stop offset="47.391304347826086%" stop-opacity="1" style="stop-color:rgb(161,127,224)"/><stop offset="98.69565217391305%" stop-opacity="1" style="stop-color:rgb(93,38,193)"/></linearGradient><path d=" M 23.5 13.5 L 8.5 13.5 L 8.5 23.5 L 23.5 23.5 L 23.5 13.5 L 23.5 13.5 Z  M 6.5 8.5 L 6.5 10.5 L 25.5 10.5 L 25.5 8.5 L 6.5 8.5 L 6.5 8.5 Z  M 26.5 13.5 L 26.5 25 C 26.5 25.828 25.828 26.5 25 26.5 L 7 26.5 C 6.172 26.5 5.5 25.828 5.5 25 L 5.5 13.5 L 5 13.5 C 4.172 13.5 3.5 12.828 3.5 12 L 3.5 7 C 3.5 6.172 4.172 5.5 5 5.5 L 27 5.5 C 27.828 5.5 28.5 6.172 28.5 7 L 28.5 12 C 28.5 12.828 27.828 13.5 27 13.5 L 26.5 13.5 L 26.5 13.5 Z  M 13 18 L 19 18 C 19.828 18 20.5 18.672 20.5 19.5 L 20.5 19.5 C 20.5 20.328 19.828 21 19 21 L 13 21 C 12.172 21 11.5 20.328 11.5 19.5 L 11.5 19.5 C 11.5 18.672 12.172 18 13 18 Z " fill-rule="evenodd" fill="url(#_lgradient_3)"/></svg>