<?xml version="1.0" encoding="UTF-8" standalone="no"?><!-- Generator: Gravit.io --><svg xmlns="http://www.w3.org/2000/svg" xmlns:xlink="http://www.w3.org/1999/xlink" style="isolation:isolate" viewBox="0 0 32 32" width="32pt" height="32pt"><g><linearGradient id="_lgradient_27" x1="0" y1="0.5" x2="0.9074880558539661" y2="0.9200778838291643" gradientTransform="matrix(23,0,0,21,4.5,5.5)" gradientUnits="userSpaceOnUse"><stop offset="0%" stop-opacity="1" style="stop-color:rgb(0,255,216)"/><stop offset="83.88839793817618%" stop-opacity="1" style="stop-color:rgb(0,255,184)"/></linearGradient><path d=" M 12 5.5 C 13.576 5.5 14.997 6.163 16 7.225 C 17.003 6.163 18.424 5.5 20 5.5 L 26 5.5 C 26.828 5.5 27.5 6.172 27.5 7 L 27.5 22 C 27.5 22.828 26.828 23.5 26 23.5 L 19 23.5 C 18.172 23.5 17.5 24.172 17.5 25 C 17.5 27 14.5 27 14.5 25 C 14.5 24.172 13.828 23.5 13 23.5 L 6 23.5 C 5.172 23.5 4.5 22.828 4.5 22 L 4.5 7 C 4.5 6.172 5.172 5.5 6 5.5 L 12 5.5 Z  M 11.5 8 L 8.5 8 C 7.948 8 7.5 8.448 7.5 9 L 7.5 9 L 7.5 20 C 7.5 20.552 7.948 21 8.5 21 L 8.5 21 L 13.5 21 C 14.052 21 14.5 20.552 14.5 20 L 14.5 20 L 14.5 11 C 14.5 9.343 13.157 8 11.5 8 L 11.5 8 Z  M 23.5 8 L 20.5 8 C 18.843 8 17.5 9.343 17.5 11 L 17.5 20 C 17.5 20.552 17.948 21 18.5 21 L 23.5 21 C 24.052 21 24.5 20.552 24.5 20 L 24.5 9 C 24.5 8.448 24.052 8 23.5 8 Z " fill="url(#_lgradient_27)"/></g></svg>