<?xml version="1.0" encoding="UTF-8" standalone="no"?><!-- Generator: Gravit.io --><svg xmlns="http://www.w3.org/2000/svg" xmlns:xlink="http://www.w3.org/1999/xlink" style="isolation:isolate" viewBox="0 0 32 32" width="32pt" height="32pt"><linearGradient id="_lgradient_13" x1="0" y1="0.5" x2="1" y2="0.5" gradientTransform="matrix(28,0,0,24,2,4)" gradientUnits="userSpaceOnUse"><stop offset="0%" stop-opacity="1" style="stop-color:rgb(84,51,255)"/><stop offset="51.73913043478261%" stop-opacity="1" style="stop-color:rgb(32,189,255)"/><stop offset="98.26086956521739%" stop-opacity="1" style="stop-color:rgb(165,254,203)"/></linearGradient><path d=" M 27 23 C 27 24.105 26.105 25 25 25 L 7 25 C 5.895 25 5 24.105 5 23 L 5 12 C 5 10.895 5.895 10 7 10 L 11 10 L 13 7 L 19 7 L 21 10 L 25 10 C 26.105 10 27 10.895 27 12 L 27 23 L 27 23 Z  M 30 23 C 30 24.33 29.47 25.6 28.54 26.54 C 27.6 27.47 26.33 28 25 28 L 7 28 C 5.67 28 4.4 27.47 3.46 26.54 C 2.53 25.6 2 24.33 2 23 L 2 12 C 2 10.67 2.53 9.4 3.46 8.46 C 4.4 7.53 5.67 7 7 7 L 9.39 7 L 11.39 4 L 20.61 4 L 22.61 7 L 25 7 C 26.33 7 27.6 7.53 28.54 8.46 C 29.47 9.4 30 10.67 30 12 L 30 23 L 30 23 Z  M 14.5 17 C 14.5 16.6 14.66 16.22 14.94 15.94 C 15.22 15.66 15.6 15.5 16 15.5 C 16.4 15.5 16.78 15.66 17.06 15.94 C 17.34 16.22 17.5 16.6 17.5 17 C 17.5 17.4 17.34 17.78 17.06 18.06 C 16.78 18.34 16.4 18.5 16 18.5 C 15.6 18.5 15.22 18.34 14.94 18.06 C 14.66 17.78 14.5 17.4 14.5 17 L 14.5 17 Z  M 11.5 17 C 11.5 15.81 11.97 14.66 12.82 13.82 C 13.66 12.97 14.81 12.5 16 12.5 C 17.19 12.5 18.34 12.97 19.18 13.82 C 20.03 14.66 20.5 15.81 20.5 17 C 20.5 18.19 20.03 19.34 19.18 20.18 C 18.34 21.03 17.19 21.5 16 21.5 C 14.81 21.5 13.66 21.03 12.82 20.18 C 11.97 19.34 11.5 18.19 11.5 17 L 11.5 17 Z " fill-rule="evenodd" fill="url(#_lgradient_13)"/></svg>