<?xml version="1.0" encoding="UTF-8" standalone="no"?><!-- Generator: Gravit.io --><svg xmlns="http://www.w3.org/2000/svg" xmlns:xlink="http://www.w3.org/1999/xlink" style="isolation:isolate" viewBox="0 0 32 32" width="32pt" height="32pt"><linearGradient id="_lgradient_32" x1="0.18229166666666663" y1="0.09375" x2="0.8261059104258444" y2="0.9613160792951541" gradientTransform="matrix(24,0,0,20,4,6)" gradientUnits="userSpaceOnUse"><stop offset="0%" stop-opacity="1" style="stop-color:rgb(34,216,143)"/><stop offset="51.73913043478261%" stop-opacity="1" style="stop-color:rgb(147,135,218)"/><stop offset="98.69565217391305%" stop-opacity="1" style="stop-color:rgb(255,89,230)"/></linearGradient><path d=" M 7.855 16.005 C 8.478 16.311 8.965 16.652 9.316 17.031 C 9.667 17.409 9.912 17.891 10.053 18.478 C 10.193 19.064 10.263 19.816 10.263 20.732 C 10.263 21.419 10.283 21.926 10.322 22.252 C 10.362 22.578 10.441 22.826 10.559 22.996 C 10.678 23.166 10.82 23.277 10.987 23.33 C 11.154 23.382 11.439 23.432 11.842 23.48 C 12.175 23.515 12.452 23.644 12.671 23.866 C 12.89 24.088 13 24.379 13 24.74 C 13 25.58 12.355 26 11.066 26 C 10.268 26 9.555 25.868 8.928 25.604 C 8.3 25.341 7.816 24.968 7.474 24.485 C 7.132 24.003 6.956 23.449 6.947 22.825 C 6.921 21.77 6.895 20.923 6.868 20.284 C 6.842 19.646 6.803 19.233 6.75 19.045 C 6.618 18.58 6.423 18.23 6.164 17.994 C 5.906 17.758 5.568 17.537 5.151 17.333 C 4.735 17.128 4.439 16.944 4.263 16.781 C 4.088 16.618 4 16.359 4 16.005 C 4 15.492 4.254 15.106 4.763 14.85 C 5.395 14.537 5.844 14.272 6.112 14.053 C 6.379 13.834 6.568 13.553 6.678 13.21 C 6.787 12.866 6.851 12.491 6.868 12.085 C 6.886 11.679 6.912 10.702 6.947 9.155 C 6.974 8.197 7.357 7.432 8.099 6.859 C 8.84 6.286 9.829 6 11.066 6 C 12.355 6 13 6.413 13 7.239 C 13 7.614 12.893 7.909 12.678 8.124 C 12.463 8.339 12.184 8.464 11.842 8.499 C 11.333 8.554 10.978 8.638 10.776 8.749 C 10.575 8.86 10.443 9.075 10.382 9.394 C 10.32 9.713 10.281 10.331 10.263 11.247 C 10.246 12.143 10.178 12.877 10.059 13.449 C 9.941 14.022 9.708 14.509 9.362 14.912 C 9.015 15.315 8.513 15.679 7.855 16.005 Z  M 24.145 16.005 C 23.522 16.311 23.035 16.652 22.684 17.031 C 22.333 17.409 22.088 17.891 21.947 18.478 C 21.807 19.064 21.737 19.816 21.737 20.732 C 21.737 21.419 21.717 21.926 21.678 22.252 C 21.638 22.578 21.559 22.826 21.441 22.996 C 21.322 23.166 21.18 23.277 21.013 23.33 C 20.846 23.382 20.561 23.432 20.158 23.48 C 19.825 23.515 19.548 23.644 19.329 23.866 C 19.11 24.088 19 24.379 19 24.74 C 19 25.58 19.645 26 20.934 26 C 21.732 26 22.445 25.868 23.072 25.604 C 23.7 25.341 24.184 24.968 24.526 24.485 C 24.868 24.003 25.044 23.449 25.053 22.825 C 25.079 21.77 25.105 20.923 25.132 20.284 C 25.158 19.646 25.197 19.233 25.25 19.045 C 25.382 18.58 25.577 18.23 25.836 17.994 C 26.094 17.758 26.432 17.537 26.849 17.333 C 27.265 17.128 27.561 16.944 27.737 16.781 C 27.912 16.618 28 16.359 28 16.005 C 28 15.492 27.746 15.106 27.237 14.85 C 26.605 14.537 26.156 14.272 25.888 14.053 C 25.621 13.834 25.432 13.553 25.322 13.21 C 25.213 12.866 25.149 12.491 25.132 12.085 C 25.114 11.679 25.088 10.702 25.053 9.155 C 25.026 8.197 24.643 7.432 23.901 6.859 C 23.16 6.286 22.171 6 20.934 6 C 19.645 6 19 6.413 19 7.239 C 19 7.614 19.107 7.909 19.322 8.124 C 19.537 8.339 19.816 8.464 20.158 8.499 C 20.667 8.554 21.022 8.638 21.224 8.749 C 21.425 8.86 21.557 9.075 21.618 9.394 C 21.68 9.713 21.719 10.331 21.737 11.247 C 21.754 12.143 21.822 12.877 21.941 13.449 C 22.059 14.022 22.292 14.509 22.638 14.912 C 22.985 15.315 23.487 15.679 24.145 16.005 Z " fill-rule="evenodd" fill="url(#_lgradient_32)"/></svg>