<?xml version="1.0" encoding="UTF-8" standalone="no"?><!-- Generator: Gravit.io --><svg xmlns="http://www.w3.org/2000/svg" xmlns:xlink="http://www.w3.org/1999/xlink" style="isolation:isolate" viewBox="0 0 32 32" width="32pt" height="32pt"><g><linearGradient id="_lgradient_25" x1="-0.014458464773922156" y1="0.009839246119734024" x2="1.0164565923220248" y2="1.0722930524759795" gradientTransform="matrix(21,0,0,23,5.5,4.5)" gradientUnits="userSpaceOnUse"><stop offset="1.3043478260869565%" stop-opacity="1" style="stop-color:rgb(254,172,94)"/><stop offset="53.04347826086957%" stop-opacity="1" style="stop-color:rgb(199,121,208)"/><stop offset="99.56521739130434%" stop-opacity="1" style="stop-color:rgb(75,192,200)"/></linearGradient><path d=" M 8.5 12.318 L 8.5 15.872 C 8.53 15.904 8.574 15.945 8.635 15.993 C 8.931 16.228 9.434 16.477 10.1 16.7 C 11.609 17.203 13.719 17.5 16 17.5 C 18.281 17.5 20.391 17.203 21.9 16.7 C 22.566 16.477 23.069 16.228 23.365 15.993 C 23.426 15.945 23.47 15.904 23.5 15.872 L 23.5 12.318 C 21.594 13.097 18.937 13.5 16 13.5 C 13.063 13.5 10.406 13.097 8.5 12.318 L 8.5 12.318 Z  M 5.5 9 C 5.5 6.068 10.205 4.5 16 4.5 C 21.795 4.5 26.5 6.068 26.5 9 L 26.5 23 C 26.5 25.937 21.817 27.5 16 27.5 C 10.183 27.5 5.5 25.937 5.5 23 L 5.5 9 L 5.5 9 Z  M 23.5 19.324 C 21.597 20.1 18.944 20.5 16 20.5 C 13.056 20.5 10.403 20.1 8.5 19.324 L 8.5 22.872 C 8.53 22.904 8.574 22.945 8.635 22.993 C 8.931 23.228 9.434 23.477 10.1 23.7 C 11.609 24.203 13.719 24.5 16 24.5 C 18.281 24.5 20.391 24.203 21.9 23.7 C 22.566 23.477 23.069 23.228 23.365 22.993 C 23.426 22.945 23.47 22.904 23.5 22.872 L 23.5 19.324 Z  M 10.11 9.698 C 11.623 10.203 13.733 10.5 16 10.5 C 18.267 10.5 20.377 10.203 21.89 9.698 C 22.549 9.479 23.05 9.233 23.351 9 C 23.05 8.767 22.549 8.521 21.89 8.302 C 20.377 7.797 18.267 7.5 16 7.5 C 13.733 7.5 11.623 7.797 10.11 8.302 C 9.451 8.521 8.95 8.767 8.649 9 C 8.95 9.233 9.451 9.479 10.11 9.698 Z " fill="url(#_lgradient_25)"/></g></svg>