<?xml version="1.0" encoding="UTF-8" standalone="no"?><!-- Generator: Gravit.io --><svg xmlns="http://www.w3.org/2000/svg" xmlns:xlink="http://www.w3.org/1999/xlink" style="isolation:isolate" viewBox="0 0 32 32" width="32pt" height="32pt"><linearGradient id="_lgradient_11" x1="0" y1="0.5" x2="1" y2="0.5" gradientTransform="matrix(28.69,0,0,25.92,1.61,3.54)" gradientUnits="userSpaceOnUse"><stop offset="0%" stop-opacity="1" style="stop-color:rgb(238,205,163)"/><stop offset="98.26086956521739%" stop-opacity="1" style="stop-color:rgb(239,98,159)"/></linearGradient><path d=" M 21.998 7.041 L 27.171 16 C 27.349 16.309 27.349 16.691 27.171 17 L 21.998 25.959 C 21.819 26.269 21.489 26.459 21.132 26.459 L 10.787 26.459 C 10.429 26.459 10.099 26.269 9.921 25.959 L 4.748 17 C 4.569 16.691 4.569 16.309 4.748 16 L 9.921 7.041 C 10.099 6.731 10.429 6.541 10.787 6.541 L 21.132 6.541 C 21.489 6.541 21.819 6.731 21.998 7.041 L 21.998 7.041 Z  M 24.6 5.54 L 29.77 14.5 C 30.12 15.11 30.3 15.8 30.3 16.5 C 30.3 17.2 30.12 17.89 29.77 18.5 L 24.6 27.46 C 23.88 28.7 22.56 29.46 21.13 29.46 L 21.13 29.46 L 10.79 29.46 L 10.79 29.46 C 9.36 29.46 8.04 28.7 7.32 27.46 L 2.15 18.5 C 1.8 17.89 1.61 17.2 1.61 16.5 C 1.61 15.8 1.8 15.11 2.15 14.5 L 7.32 5.54 C 8.04 4.3 9.36 3.54 10.79 3.54 L 21.13 3.54 C 22.56 3.54 23.88 4.3 24.6 5.54 L 24.6 5.54 Z  M 16.447 11.119 L 20.395 13.398 C 20.704 13.576 20.895 13.906 20.895 14.264 L 20.895 18.821 C 20.895 19.179 20.704 19.509 20.395 19.688 L 16.447 21.966 C 16.138 22.145 15.757 22.145 15.447 21.966 L 11.5 19.688 C 11.191 19.509 11 19.179 11 18.821 L 11 14.264 C 11 13.906 11.191 13.576 11.5 13.398 L 15.447 11.119 C 15.757 10.94 16.138 10.94 16.447 11.119 Z " fill-rule="evenodd" fill="url(#_lgradient_11)"/></svg>