<?xml version="1.0" encoding="UTF-8" standalone="no"?><!-- Generator: Gravit.io --><svg xmlns="http://www.w3.org/2000/svg" xmlns:xlink="http://www.w3.org/1999/xlink" style="isolation:isolate" viewBox="0 0 32 32" width="32pt" height="32pt"><linearGradient id="_lgradient_21" x1="-0.020174336083316563" y1="-0.020650954332617766" x2="0.907845123749246" y2="0.9292929449677948" gradientTransform="matrix(20,0,0,19,6,6)" gradientUnits="userSpaceOnUse"><stop offset="2.1739130434782608%" stop-opacity="1" style="stop-color:rgb(242,79,92)"/><stop offset="49.56521739130435%" stop-opacity="1" style="stop-color:rgb(208,103,207)"/><stop offset="98.26086956521739%" stop-opacity="1" style="stop-color:rgb(49,193,233)"/></linearGradient><path d=" M 7.5 6 L 20.5 6 C 21.328 6 22 6.672 22 7.5 L 22 7.5 C 22 8.328 21.328 9 20.5 9 L 7.5 9 C 6.672 9 6 8.328 6 7.5 L 6 7.5 C 6 6.672 6.672 6 7.5 6 L 7.5 6 Z  M 7.5 14 L 24.5 14 C 25.328 14 26 14.672 26 15.5 L 26 15.5 C 26 16.328 25.328 17 24.5 17 L 7.5 17 C 6.672 17 6 16.328 6 15.5 L 6 15.5 C 6 14.672 6.672 14 7.5 14 L 7.5 14 Z  M 7.5 22 L 15.5 22 C 16.328 22 17 22.672 17 23.5 L 17 23.5 C 17 24.328 16.328 25 15.5 25 L 7.5 25 C 6.672 25 6 24.328 6 23.5 L 6 23.5 C 6 22.672 6.672 22 7.5 22 Z " fill-rule="evenodd" fill="url(#_lgradient_21)"/></svg>