<?xml version="1.0" encoding="UTF-8" standalone="no"?><!-- Generator: Gravit.io --><svg xmlns="http://www.w3.org/2000/svg" xmlns:xlink="http://www.w3.org/1999/xlink" style="isolation:isolate" viewBox="0 0 32 32" width="32pt" height="32pt"><linearGradient id="_lgradient_22" x1="-0.000038208333333289435" y1="0.5000000833333331" x2="0.9999618333333335" y2="0.5000000833333331" gradientTransform="matrix(28.58,0,0,23,1.71,4.5)" gradientUnits="userSpaceOnUse"><stop offset="0%" stop-opacity="1" style="stop-color:rgb(211,0,220)"/><stop offset="100%" stop-opacity="1" style="stop-color:rgb(135,0,255)"/></linearGradient><linearGradient id="_lgradient_23" x1="-0.000038208333333289435" y1="0.5000000833333331" x2="0.9999618333333335" y2="0.5000000833333331"><stop offset="0%" stop-opacity="1" style="stop-color:rgb(211,0,220)"/><stop offset="100%" stop-opacity="1" style="stop-color:rgb(135,0,255)"/></linearGradient><path d=" M 6.701 12.621 L 6.701 12.621 C 6.342 12.621 6.05 12.33 6.05 11.97 L 6.05 11.97 C 6.05 11.611 6.342 11.319 6.701 11.319 L 6.701 11.319 L 10.204 11.319 C 10.546 11.319 11.046 11.153 11.319 10.947 L 15.287 7.972 C 15.561 7.766 16.061 7.6 16.403 7.6 L 28.43 7.6 C 29.456 7.6 30.29 8.433 30.29 9.46 L 30.29 25.64 C 30.29 26.667 29.456 27.5 28.43 27.5 L 3.57 27.5 C 2.544 27.5 1.71 26.667 1.71 25.64 L 1.71 18.79 L 1.71 18.79 C 1.71 18.43 2.002 18.139 2.361 18.139 L 2.361 18.139 C 2.72 18.139 3.012 18.43 3.012 18.79 L 3.012 18.79 L 3.012 25.268 C 3.012 25.781 3.429 26.198 3.942 26.198 L 28.058 26.198 C 28.571 26.198 28.988 25.781 28.988 25.268 L 28.988 9.832 C 28.988 9.318 28.571 8.902 28.058 8.902 L 16.837 8.902 C 16.495 8.902 15.995 9.068 15.721 9.274 L 11.753 12.249 C 11.48 12.455 10.98 12.621 10.637 12.621 L 6.701 12.621 Z  M 3.012 13.83 L 3.012 13.83 C 3.012 14.189 2.72 14.481 2.361 14.481 L 2.361 14.481 C 2.002 14.481 1.71 14.189 1.71 13.83 L 1.71 13.83 L 1.71 6.36 C 1.71 5.333 2.544 4.5 3.57 4.5 L 11.307 4.5 C 11.649 4.5 12.123 4.696 12.365 4.938 L 13.979 6.552 L 13.979 6.552 C 14.232 6.805 14.232 7.216 13.979 7.47 L 13.979 7.47 C 13.726 7.723 13.315 7.723 13.061 7.47 L 13.061 7.47 L 11.394 5.802 L 3.942 5.802 C 3.429 5.802 3.012 6.219 3.012 6.732 L 3.012 13.83 Z " fill-rule="evenodd" fill="url(#_lgradient_22)" vector-effect="non-scaling-stroke" stroke-width="0.5" stroke="url(#_lgradient_23)" stroke-linejoin="miter" stroke-linecap="square" stroke-miterlimit="3"/></svg>