<?xml version="1.0" encoding="UTF-8" standalone="no"?><!-- Generator: Gravit.io --><svg xmlns="http://www.w3.org/2000/svg" xmlns:xlink="http://www.w3.org/1999/xlink" style="isolation:isolate" viewBox="0 0 32 32" width="32pt" height="32pt"><g><linearGradient id="_lgradient_6" x1="0" y1="0.5" x2="1" y2="0.5" gradientTransform="matrix(21,0,0,21,5.5,5.5)" gradientUnits="userSpaceOnUse"><stop offset="0%" stop-opacity="1" style="stop-color:rgb(255,224,49)"/><stop offset="100%" stop-opacity="1" style="stop-color:rgb(250,0,117)"/></linearGradient><path d=" M 14.27 23.424 C 13.674 25.211 11.988 26.5 10 26.5 C 7.515 26.5 5.5 24.485 5.5 22 C 5.5 20.041 6.752 18.374 8.5 17.756 L 8.5 7 C 8.5 6.172 9.172 5.5 10 5.5 C 10.828 5.5 11.5 6.172 11.5 7 L 11.5 17.756 C 12.746 18.197 13.74 19.17 14.208 20.403 C 17.383 19.889 19.889 17.383 20.403 14.208 C 18.706 13.564 17.5 11.923 17.5 10 C 17.5 7.515 19.515 5.5 22 5.5 C 24.485 5.5 26.5 7.515 26.5 10 C 26.5 11.988 25.211 13.674 23.424 14.27 C 22.847 19.054 19.054 22.847 14.27 23.424 L 14.27 23.424 Z  M 22 11.5 C 22.828 11.5 23.5 10.828 23.5 10 C 23.5 9.172 22.828 8.5 22 8.5 C 21.172 8.5 20.5 9.172 20.5 10 C 20.5 10.828 21.172 11.5 22 11.5 Z  M 10 23.5 C 10.828 23.5 11.5 22.828 11.5 22 C 11.5 21.172 10.828 20.5 10 20.5 C 9.172 20.5 8.5 21.172 8.5 22 C 8.5 22.828 9.172 23.5 10 23.5 Z " fill="url(#_lgradient_6)"/></g></svg>