<?xml version="1.0" encoding="UTF-8" standalone="no"?><!-- Generator: Gravit.io --><svg xmlns="http://www.w3.org/2000/svg" xmlns:xlink="http://www.w3.org/1999/xlink" style="isolation:isolate" viewBox="0 0 32 32" width="32pt" height="32pt"><g><linearGradient id="_lgradient_15" x1="0.22078557924020603" y1="0.04723996636961164" x2="0.9022490870014594" y2="0.9061460265379022" gradientTransform="matrix(19,0,0,21,6.5,5.5)" gradientUnits="userSpaceOnUse"><stop offset="2.608695652173913%" stop-opacity="1" style="stop-color:rgb(237,184,212)"/><stop offset="98.69565217391305%" stop-opacity="1" style="stop-color:rgb(162,110,245)"/></linearGradient><path d=" M 16.991 20.5 L 14.009 20.5 L 13.491 25.166 C 13.399 25.989 12.658 26.582 11.834 26.491 C 11.011 26.399 10.418 25.658 10.509 24.834 L 10.991 20.5 L 8 20.5 C 7.172 20.5 6.5 19.828 6.5 19 C 6.5 18.172 7.172 17.5 8 17.5 L 11.324 17.5 L 11.657 14.5 L 8 14.5 C 7.172 14.5 6.5 13.828 6.5 13 C 6.5 12.172 7.172 11.5 8 11.5 L 11.991 11.5 L 12.509 6.834 C 12.601 6.011 13.342 5.418 14.166 5.509 C 14.989 5.601 15.582 6.342 15.491 7.166 L 15.009 11.5 L 17.991 11.5 L 18.509 6.834 C 18.601 6.011 19.342 5.418 20.166 5.509 C 20.989 5.601 21.582 6.342 21.491 7.166 L 21.009 11.5 L 24 11.5 C 24.828 11.5 25.5 12.172 25.5 13 C 25.5 13.828 24.828 14.5 24 14.5 L 20.676 14.5 L 20.343 17.5 L 24 17.5 C 24.828 17.5 25.5 18.172 25.5 19 C 25.5 19.828 24.828 20.5 24 20.5 L 20.009 20.5 L 19.491 25.166 C 19.399 25.989 18.658 26.582 17.834 26.491 C 17.011 26.399 16.418 25.658 16.509 24.834 L 16.991 20.5 Z  M 17.324 17.5 L 17.657 14.5 L 14.676 14.5 L 14.343 17.5 L 17.324 17.5 L 17.324 17.5 Z " fill="url(#_lgradient_15)"/></g></svg>