<?xml version="1.0" encoding="UTF-8" standalone="no"?><!-- Generator: Gravit.io --><svg xmlns="http://www.w3.org/2000/svg" xmlns:xlink="http://www.w3.org/1999/xlink" style="isolation:isolate" viewBox="0 0 32 32" width="32pt" height="32pt"><linearGradient id="_lgradient_16" x1="-9.020562075079397e-17" y1="0.5" x2="1.0869565217400752" y2="0.5333333333255554" gradientTransform="matrix(23,0,0,15,4.5,8.5)" gradientUnits="userSpaceOnUse"><stop offset="0%" stop-opacity="1" style="stop-color:rgb(198,255,221)"/><stop offset="50%" stop-opacity="1" style="stop-color:rgb(251,215,134)"/><stop offset="100%" stop-opacity="1" style="stop-color:rgb(247,121,125)"/></linearGradient><path d=" M 23.879 16 L 18.939 11.061 C 18.354 10.475 18.354 9.525 18.939 8.939 C 19.525 8.354 20.475 8.354 21.061 8.939 L 27.061 14.939 C 27.646 15.525 27.646 16.475 27.061 17.061 L 21.061 23.061 C 20.475 23.646 19.525 23.646 18.939 23.061 C 18.354 22.475 18.354 21.525 18.939 20.939 L 23.879 16 Z  M 8.121 16 L 13.061 20.939 C 13.646 21.525 13.646 22.475 13.061 23.061 C 12.475 23.646 11.525 23.646 10.939 23.061 L 4.939 17.061 C 4.354 16.475 4.354 15.525 4.939 14.939 L 10.939 8.939 C 11.525 8.354 12.475 8.354 13.061 8.939 C 13.646 9.525 13.646 10.475 13.061 11.061 L 8.121 16 Z " fill-rule="evenodd" fill="url(#_lgradient_16)"/></svg>