<?xml version="1.0" encoding="UTF-8" standalone="no"?><!-- Generator: Gravit.io --><svg xmlns="http://www.w3.org/2000/svg" xmlns:xlink="http://www.w3.org/1999/xlink" style="isolation:isolate" viewBox="0 0 32 32" width="32pt" height="32pt"><linearGradient id="_lgradient_14" x1="0.06818181818176848" y1="0.2329545454545455" x2="0.9384302091713563" y2="0.7793895816572807" gradientTransform="matrix(23,0,0,23,4.5,4.5)" gradientUnits="userSpaceOnUse"><stop offset="0%" stop-opacity="1" style="stop-color:rgb(48,207,208)"/><stop offset="98.26086956521739%" stop-opacity="1" style="stop-color:rgb(51,8,103)"/></linearGradient><path d=" M 7.599 24.299 L 19.331 12.923 C 19.913 12.359 20.837 12.359 21.419 12.923 L 24.5 15.911 L 24.5 8 C 24.5 7.724 24.276 7.5 24 7.5 L 8 7.5 C 7.724 7.5 7.5 7.724 7.5 8 L 7.5 24 C 7.5 24.112 7.537 24.216 7.599 24.299 L 7.599 24.299 L 7.599 24.299 Z  M 11.702 24.5 L 24 24.5 C 24.276 24.5 24.5 24.276 24.5 24 L 24.5 20.089 L 20.375 16.089 L 11.702 24.5 L 11.702 24.5 Z  M 27.5 19.453 L 27.5 19.457 L 27.5 24 C 27.5 25.933 25.933 27.5 24 27.5 L 8.002 27.5 L 7.998 27.5 C 6.066 27.499 4.5 25.932 4.5 24 L 4.5 8 C 4.5 6.067 6.067 4.5 8 4.5 L 24 4.5 C 25.933 4.5 27.5 6.067 27.5 8 L 27.5 19.453 L 27.5 19.453 L 27.5 19.453 Z  M 10 12.5 C 10 11.12 11.12 10 12.5 10 C 13.88 10 15 11.12 15 12.5 C 15 13.88 13.88 15 12.5 15 C 11.12 15 10 13.88 10 12.5 Z " fill-rule="evenodd" fill="url(#_lgradient_14)"/></svg>