<?xml version="1.0" encoding="UTF-8" standalone="no"?><!-- Generator: Gravit.io --><svg xmlns="http://www.w3.org/2000/svg" xmlns:xlink="http://www.w3.org/1999/xlink" style="isolation:isolate" viewBox="0 0 32 32" width="32pt" height="32pt"><linearGradient id="_lgradient_18" x1="0" y1="0.5" x2="0.9074880558539661" y2="0.9200778838291643" gradientTransform="matrix(23,0,0,23,4.5,4.5)" gradientUnits="userSpaceOnUse"><stop offset="0%" stop-opacity="1" style="stop-color:rgb(247,241,7)"/><stop offset="83.88839793817618%" stop-opacity="1" style="stop-color:rgb(255,187,36)"/></linearGradient><path d=" M 15.975 14 L 16.025 14 C 17.391 14 18.5 15.109 18.5 16.475 L 18.5 20.525 C 18.5 21.891 17.391 23 16.025 23 L 15.975 23 C 14.609 23 13.5 21.891 13.5 20.525 L 13.5 16.475 C 13.5 15.109 14.609 14 15.975 14 L 15.975 14 Z  M 7.5 16 C 7.5 13.75 8.4 11.58 9.99 9.99 C 11.58 8.4 13.75 7.5 16 7.5 C 18.25 7.5 20.42 8.4 22.01 9.99 C 23.6 11.58 24.5 13.75 24.5 16 C 24.5 18.25 23.6 20.42 22.01 22.01 C 20.42 23.6 18.25 24.5 16 24.5 C 13.75 24.5 11.58 23.6 9.99 22.01 C 8.4 20.42 7.5 18.25 7.5 16 L 7.5 16 L 7.5 16 Z  M 4.5 16 C 4.5 12.95 5.71 10.02 7.87 7.87 C 10.02 5.71 12.95 4.5 16 4.5 C 19.05 4.5 21.98 5.71 24.13 7.87 C 26.29 10.02 27.5 12.95 27.5 16 C 27.5 19.05 26.29 21.98 24.13 24.13 C 21.98 26.29 19.05 27.5 16 27.5 C 12.95 27.5 10.02 26.29 7.87 24.13 C 5.71 21.98 4.5 19.05 4.5 16 L 4.5 16 L 4.5 16 Z  M 14.5 11.5 C 14.5 10.672 15.172 10 16 10 C 16.828 10 17.5 10.672 17.5 11.5 C 17.5 12.328 16.828 13 16 13 C 15.172 13 14.5 12.328 14.5 11.5 Z " fill-rule="evenodd" fill="url(#_lgradient_18)"/></svg>