<?xml version="1.0" encoding="UTF-8" standalone="no"?><!-- Generator: Gravit.io --><svg xmlns="http://www.w3.org/2000/svg" xmlns:xlink="http://www.w3.org/1999/xlink" style="isolation:isolate" viewBox="0 0 32 32" width="32pt" height="32pt"><linearGradient id="_lgradient_9" x1="0.5067099567099568" y1="-0.0007658102766798583" x2="0.4818181818181818" y2="1.0958250988142297" gradientTransform="matrix(21,0,0,23,5.5,4.5)" gradientUnits="userSpaceOnUse"><stop offset="3.0434782608695654%" stop-opacity="1" style="stop-color:rgb(166,124,243)"/><stop offset="98.69565217391305%" stop-opacity="1" style="stop-color:rgb(88,78,123)"/></linearGradient><path d=" M 9.5 13.5 L 9.5 11 C 9.5 7.41 12.41 4.5 16 4.5 C 19.59 4.5 22.5 7.41 22.5 11 L 22.5 13.5 L 23 13.5 C 24.933 13.5 26.5 15.067 26.5 17 L 26.5 24 C 26.5 25.933 24.933 27.5 23 27.5 L 9 27.5 C 7.067 27.5 5.5 25.933 5.5 24 L 5.5 17 C 5.5 15.067 7.067 13.5 9 13.5 L 9.5 13.5 Z  M 12.5 13.5 L 19.5 13.5 L 19.5 11 C 19.5 9.067 17.933 7.5 16 7.5 C 14.067 7.5 12.5 9.067 12.5 11 L 12.5 13.5 Z  M 9 16.5 C 8.724 16.5 8.5 16.724 8.5 17 L 8.5 24 C 8.5 24.276 8.724 24.5 9 24.5 L 23 24.5 C 23.276 24.5 23.5 24.276 23.5 24 L 23.5 17 C 23.5 16.724 23.276 16.5 23 16.5 L 9 16.5 Z " fill="url(#_lgradient_9)"/></svg>