<?xml version="1.0" encoding="UTF-8" standalone="no"?><!-- Generator: Gravit.io --><svg xmlns="http://www.w3.org/2000/svg" xmlns:xlink="http://www.w3.org/1999/xlink" style="isolation:isolate" viewBox="0 0 32 32" width="32pt" height="32pt"><linearGradient id="_lgradient_7" x1="0.5436893203883496" y1="0.037227949111065195" x2="0.6727076591154261" y2="1.0061728263163285" gradientTransform="matrix(23,0,0,24.53,4.5,3.741)" gradientUnits="userSpaceOnUse"><stop offset="0%" stop-opacity="1" style="stop-color:rgb(207,78,140)"/><stop offset="51.73913043478261%" stop-opacity="1" style="stop-color:rgb(11,174,200)"/><stop offset="97.82608695652173%" stop-opacity="1" style="stop-color:rgb(34,216,143)"/></linearGradient><path d=" M 21.686 13.834 C 21.677 13.839 21.667 13.844 21.657 13.848 L 17.5 15.927 L 17.5 24.578 L 24.222 21.217 C 24.392 21.132 24.5 20.959 24.5 20.77 L 24.5 12.427 L 21.686 13.834 L 21.686 13.834 Z  M 11.005 9.18 L 9.359 10.002 L 16 13.323 L 17.646 12.5 L 11.005 9.18 L 11.005 9.18 Z  M 14.359 7.502 L 21 10.823 L 22.641 10.003 L 16.221 6.793 C 16.081 6.724 15.917 6.724 15.781 6.792 L 14.359 7.502 L 14.359 7.502 Z  M 10.225 6.215 C 10.293 6.175 10.363 6.14 10.435 6.11 L 14.443 4.107 C 15.424 3.619 16.576 3.619 17.557 4.107 L 25.557 8.107 C 26.747 8.698 27.499 9.911 27.5 11.24 L 27.5 20.771 C 27.499 22.099 26.747 23.312 25.561 23.902 L 17.561 27.901 C 16.575 28.395 15.415 28.395 14.429 27.902 L 6.425 23.9 C 5.237 23.301 4.491 22.08 4.5 20.76 L 4.5 11.239 C 4.501 9.911 5.253 8.698 6.439 8.108 L 10.225 6.215 L 10.225 6.215 Z  M 14.5 24.583 L 14.5 15.927 L 7.5 12.427 L 7.5 20.77 C 7.499 20.961 7.605 21.135 7.771 21.218 L 14.5 24.583 L 14.5 24.583 Z " fill="url(#_lgradient_7)"/></svg>