<?xml version="1.0" encoding="UTF-8" standalone="no"?><!-- Generator: Gravit.io --><svg xmlns="http://www.w3.org/2000/svg" xmlns:xlink="http://www.w3.org/1999/xlink" style="isolation:isolate" viewBox="0 0 32 32" width="32pt" height="32pt"><linearGradient id="_lgradient_5" x1="0.34027777777777773" y1="0.036585365853658625" x2="1.0087187958883996" y2="1.012732351993124" gradientTransform="matrix(22,0,0,21,5,5)" gradientUnits="userSpaceOnUse"><stop offset="0%" stop-opacity="1" style="stop-color:rgb(156,51,196)"/><stop offset="51.30434782608696%" stop-opacity="1" style="stop-color:rgb(255,25,80)"/><stop offset="98.69565217391305%" stop-opacity="1" style="stop-color:rgb(255,135,36)"/></linearGradient><path d=" M 6.5 5 L 12.5 5 C 13.328 5 14 5.672 14 6.5 L 14 6.5 C 14 7.328 13.328 8 12.5 8 L 6.5 8 C 5.672 8 5 7.328 5 6.5 L 5 6.5 C 5 5.672 5.672 5 6.5 5 L 6.5 5 L 6.5 5 L 6.5 5 L 6.5 5 L 6.5 5 L 6.5 5 L 6.5 5 L 6.5 5 L 6.5 5 L 6.5 5 Z  M 6.5 11 L 8.5 11 C 9.328 11 10 11.672 10 12.5 L 10 12.5 C 10 13.328 9.328 14 8.5 14 L 6.5 14 C 5.672 14 5 13.328 5 12.5 L 5 12.5 C 5 11.672 5.672 11 6.5 11 L 6.5 11 L 6.5 11 L 6.5 11 L 6.5 11 L 6.5 11 L 6.5 11 L 6.5 11 L 6.5 11 L 6.5 11 L 6.5 11 Z  M 17.5 5 L 18.5 5 C 19.328 5 20 5.672 20 6.5 L 20 6.5 C 20 7.328 19.328 8 18.5 8 L 17.5 8 C 16.672 8 16 7.328 16 6.5 L 16 6.5 C 16 5.672 16.672 5 17.5 5 L 17.5 5 L 17.5 5 L 17.5 5 L 17.5 5 L 17.5 5 L 17.5 5 L 17.5 5 L 17.5 5 L 17.5 5 Z  M 13.5 11 L 13.5 11 C 14.328 11 15 11.672 15 12.5 L 15 12.5 C 15 13.328 14.328 14 13.5 14 L 13.5 14 C 12.672 14 12 13.328 12 12.5 L 12 12.5 C 12 11.672 12.672 11 13.5 11 L 13.5 11 L 13.5 11 L 13.5 11 L 13.5 11 L 13.5 11 L 13.5 11 L 13.5 11 L 13.5 11 Z  M 23.5 5 L 25.5 5 C 26.328 5 27 5.672 27 6.5 L 27 6.5 C 27 7.328 26.328 8 25.5 8 L 23.5 8 C 22.672 8 22 7.328 22 6.5 L 22 6.5 C 22 5.672 22.672 5 23.5 5 L 23.5 5 L 23.5 5 L 23.5 5 L 23.5 5 L 23.5 5 L 23.5 5 L 23.5 5 Z  M 26 11 L 26 11 C 26.552 11 27 11.448 27 12 L 27 13 C 27 13.552 26.552 14 26 14 L 26 14 C 25.448 14 25 13.552 25 13 L 25 12 C 25 11.448 25.448 11 26 11 L 26 11 L 26 11 L 26 11 L 26 11 L 26 11 L 26 11 Z  M 23.5 17 L 25.5 17 C 26.328 17 27 17.672 27 18.5 L 27 18.5 C 27 19.328 26.328 20 25.5 20 L 23.5 20 C 22.672 20 22 19.328 22 18.5 L 22 18.5 C 22 17.672 22.672 17 23.5 17 L 23.5 17 L 23.5 17 L 23.5 17 L 23.5 17 L 23.5 17 Z  M 15.5 23 L 25.5 23 C 26.328 23 27 23.672 27 24.5 L 27 24.5 C 27 25.328 26.328 26 25.5 26 L 15.5 26 C 14.672 26 14 25.328 14 24.5 L 14 24.5 C 14 23.672 14.672 23 15.5 23 L 15.5 23 L 15.5 23 L 15.5 23 L 15.5 23 Z  M 18.5 11 L 21.5 11 C 22.328 11 23 11.672 23 12.5 L 23 12.5 C 23 13.328 22.328 14 21.5 14 L 18.5 14 C 17.672 14 17 13.328 17 12.5 L 17 12.5 C 17 11.672 17.672 11 18.5 11 L 18.5 11 L 18.5 11 L 18.5 11 Z  M 6.5 17 L 7.5 17 C 8.328 17 9 17.672 9 18.5 L 9 18.5 C 9 19.328 8.328 20 7.5 20 L 6.5 20 C 5.672 20 5 19.328 5 18.5 L 5 18.5 C 5 17.672 5.672 17 6.5 17 L 6.5 17 L 6.5 17 Z  M 12.5 17 L 18.5 17 C 19.328 17 20 17.672 20 18.5 L 20 18.5 C 20 19.328 19.328 20 18.5 20 L 12.5 20 C 11.672 20 11 19.328 11 18.5 L 11 18.5 C 11 17.672 11.672 17 12.5 17 L 12.5 17 Z  M 6.5 23 L 10.5 23 C 11.328 23 12 23.672 12 24.5 L 12 24.5 C 12 25.328 11.328 26 10.5 26 L 6.5 26 C 5.672 26 5 25.328 5 24.5 L 5 24.5 C 5 23.672 5.672 23 6.5 23 Z " fill-rule="evenodd" fill="url(#_lgradient_5)"/></svg>