<?xml version="1.0" encoding="UTF-8" standalone="no"?><!-- Generator: Gravit.io --><svg xmlns="http://www.w3.org/2000/svg" xmlns:xlink="http://www.w3.org/1999/xlink" style="isolation:isolate" viewBox="0 0 32 32" width="32pt" height="32pt"><g><linearGradient id="_lgradient_9" x1="0.061897106109324806" y1="0.14716151924516707" x2="0.9904248356713994" y2="0.9865808764728623" gradientTransform="matrix(24,0,0,24,4,4)" gradientUnits="userSpaceOnUse"><stop offset="0%" stop-opacity="1" style="stop-color:rgb(22,181,228)"/><stop offset="98.26086956521739%" stop-opacity="1" style="stop-color:rgb(245,32,250)"/></linearGradient><path d=" M 16 4 C 17.205 4 18.182 4.977 18.182 6.182 L 18.182 6.28 C 18.185 6.997 18.613 7.645 19.273 7.927 C 19.946 8.224 20.732 8.082 21.258 7.567 L 21.324 7.502 C 21.733 7.092 22.288 6.862 22.867 6.862 C 23.446 6.862 24.002 7.092 24.411 7.502 C 24.821 7.911 25.051 8.466 25.051 9.045 C 25.051 9.625 24.821 10.18 24.411 10.589 L 24.345 10.655 C 23.831 11.181 23.688 11.967 23.985 12.64 L 23.985 12.727 C 24.268 13.387 24.915 13.815 25.633 13.818 L 25.818 13.818 C 27.023 13.818 28 14.795 28 16 C 28 17.205 27.023 18.182 25.818 18.182 L 25.72 18.182 C 25.003 18.185 24.355 18.613 24.073 19.273 C 23.776 19.946 23.918 20.732 24.433 21.258 L 24.498 21.324 C 24.908 21.733 25.138 22.288 25.138 22.867 C 25.138 23.446 24.908 24.002 24.498 24.411 C 24.089 24.821 23.534 25.051 22.955 25.051 C 22.375 25.051 21.82 24.821 21.411 24.411 L 21.345 24.345 C 20.819 23.831 20.033 23.688 19.36 23.985 C 18.701 24.268 18.272 24.915 18.269 25.633 L 18.269 25.818 C 18.269 27.023 17.292 28 16.087 28 C 14.882 28 13.905 27.023 13.905 25.818 L 13.905 25.72 C 13.888 24.981 13.421 24.328 12.727 24.073 C 12.054 23.776 11.268 23.918 10.742 24.433 L 10.676 24.498 C 10.267 24.908 9.712 25.138 9.133 25.138 C 8.554 25.138 7.998 24.908 7.589 24.498 C 7.179 24.089 6.949 23.534 6.949 22.955 C 6.949 22.375 7.179 21.82 7.589 21.411 L 7.655 21.345 C 8.169 20.819 8.312 20.033 8.015 19.36 C 7.732 18.701 7.085 18.272 6.367 18.269 L 6.182 18.269 C 4.977 18.269 4 17.292 4 16.087 C 4 14.882 4.977 13.905 6.182 13.905 L 6.28 13.905 C 7.019 13.888 7.672 13.421 7.927 12.727 C 8.224 12.054 8.082 11.268 7.567 10.742 L 7.502 10.676 C 7.092 10.267 6.862 9.712 6.862 9.133 C 6.862 8.554 7.092 7.998 7.502 7.589 C 7.911 7.179 8.466 6.949 9.045 6.949 C 9.625 6.949 10.18 7.179 10.589 7.589 L 10.655 7.655 C 11.181 8.169 11.967 8.312 12.64 8.015 L 12.727 8.015 C 13.387 7.732 13.815 7.085 13.818 6.367 L 13.818 6.182 C 13.818 4.977 14.795 4 16 4 Z  M 16 13 C 14.343 13 13 14.343 13 16 C 13 17.657 14.343 19 16 19 C 17.657 19 19 17.657 19 16 C 19 14.343 17.657 13 16 13 Z " fill-rule="evenodd" fill="url(#_lgradient_9)"/></g></svg>