<?xml version="1.0" encoding="UTF-8" standalone="no"?><!-- Generator: Gravit.io --><svg xmlns="http://www.w3.org/2000/svg" xmlns:xlink="http://www.w3.org/1999/xlink" style="isolation:isolate" viewBox="0 0 32 32" width="32pt" height="32pt"><linearGradient id="_lgradient_28" x1="0.21874999649848828" y1="0.17506041551987891" x2="1.098990208503709" y2="1.1181589937900303" gradientTransform="matrix(24,0,0,24,4,4)" gradientUnits="userSpaceOnUse"><stop offset="0%" stop-opacity="1" style="stop-color:rgb(252,203,144)"/><stop offset="83.91304347826087%" stop-opacity="1" style="stop-color:rgb(213,126,235)"/></linearGradient><path d=" M 9 4 L 23 4 C 25.761 4 28 6.239 28 9 L 28 23 C 28 25.761 25.761 28 23 28 L 9 28 C 6.239 28 4 25.761 4 23 L 4 9 C 4 6.239 6.239 4 9 4 Z  M 16.5 23 L 22.5 23 C 23.328 23 24 22.328 24 21.5 C 24 20.672 23.328 20 22.5 20 L 16.5 20 C 15.672 20 15 20.672 15 21.5 C 15 22.328 15.672 23 16.5 23 Z  M 11.493 15.5 L 8.379 19.003 C 7.829 19.623 7.884 20.571 8.503 21.121 C 9.123 21.671 10.071 21.616 10.621 20.997 L 14.621 16.497 C 15.126 15.928 15.126 15.072 14.621 14.503 L 10.621 10.003 C 10.071 9.384 9.123 9.329 8.503 9.879 C 7.884 10.429 7.829 11.377 8.379 11.997 L 11.493 15.5 Z " fill="url(#_lgradient_28)"/></svg>